<?xml version="1.0" encoding="UTF-8"?><svg id="a" xmlns="http://www.w3.org/2000/svg" viewBox="0 0 156.59 828.52"><defs><style>.b{fill:none;stroke:#666667;stroke-miterlimit:10;}.c,.d,.e{stroke-width:0px;}.d{fill:#666667;}.e{fill:#fff;}</style></defs><path class="e" d="m18,828.02c-9.65,0-17.5-7.85-17.5-17.5l.22-415.58h155.37s-.22,415.58-.22,415.58c0,9.65-7.85,17.5-17.5,17.5H18Z"/><path class="c" d="m1.22,395.44h154.37s-.22,415.08-.22,415.08c0,4.52-1.77,8.78-5,12.01-3.22,3.22-7.48,4.99-12.01,4.99H18c-4.52,0-8.78-1.77-12.01-5-3.22-3.22-4.99-7.48-4.99-12l.22-415.08m-1-1l-.22,416.08c0,9.9,8.1,18,18,18h120.37c9.9,0,18-8.1,18-18l.22-416.08H.22Z"/><path class="b" d="m111.45,730.71c-.05-1.52-1.71-2.45-3.21-2.72-1.5-.26-3.13-.21-4.38-1.08-1.28-.89-1.86-2.59-3.23-3.33-2.06-1.11-4.44.49-6.55,1.48-2.51,1.17-5.33,1.49-8.09,1.72-4.57.38-9.15.55-13.73.52-3.85-.03-7.71-.2-11.54.25-3.66.43-7.63,1.37-10.86-.42-1.37-.76-2.81-2.02-4.27-1.47-1.02.38-1.53,1.5-2.29,2.28-2.5,2.57-6.79,1.07-10.35,1.49-2.41.28-4.64,1.52-7.06,1.71-3.5.27-7.1-1.67-10.42-.52-3.9,1.35-5.22,6.1-5.98,10.17-.66,3.55-1.32,7.22-.48,10.73.26,1.1.67,2.17.88,3.29.3,1.59.19,3.23.07,4.84-.74,10.43-1.47,20.86-2.21,31.28-.15,2.15.34,5.08,2.49,5.19.7.04,1.36-.28,1.98-.59,2.06-1.03,4.43-2.52,4.43-4.83,0-.78-.29-1.57-.13-2.33.2-.95,1.03-1.6,1.77-2.23,5.18-4.36,6.2-22.02,6.27-28.78.03-2.59,3.35-4.94,14.7-10.46,8.05-3.91,14.52-4.63,14.52,1.46,0,3.3-5.89,9.49-4.44,12.45,1.01,2.06-.87,7.84.45,9.7.9,1.26,2.36,5.51,3.02,6.91,2.97,6.31-1.65,9.49,2.79,14.88.59.72,1.29,1.49,2.21,1.57,1.81.14,2.6-2.34,2.18-4.1s-1.42-3.57-.8-5.27c.3-.81.92-1.46,1.41-2.18,1.65-2.47,1.5-5.67,1.62-8.64.1-2.45.44-4.89,1.01-7.28.59-2.46,1.46-4.94,3.21-6.77s4.54-2.85,6.89-1.9c2.31.93,3.58,3.4,4.3,5.78.72,2.38,1.13,4.93,2.56,6.97.96,1.37,2.35,2.46,3.03,3.99.64,1.42.58,3.04.74,4.6.42,4.02.8,4.02,2.71,7.59,9.11,16.97,11.14-.41,11.58-1.18.66-1.15,2.16-1.41,3.41-1.82,5.01-1.66,7.74-7.2,8.33-12.45.59-5.24-.39-10.55-.09-15.82.26-4.67,1.52-9.23,2.12-13.87.61-4.64.5-9.59-.61-10.78Z"/><path class="d" d="m101.6,749.14c1.23-5.64-2.34-11.21-7.98-12.44s-11.21,2.34-12.44,7.98c-1.23,5.64,2.34,11.21,7.98,12.44s11.21-2.34,12.44-7.98Zm-11.69,4.54c0-1.02.82-1.84,1.84-1.84s1.84.82,1.84,1.84-.82,1.84-1.84,1.84-1.84-.82-1.84-1.84Z"/><path class="b" d="m111.45,495.54c-.05-1.52-1.71-2.45-3.21-2.72-1.5-.26-3.13-.21-4.38-1.08-1.28-.89-1.86-2.59-3.23-3.33-2.06-1.11-4.44.49-6.55,1.48-2.51,1.17-5.33,1.49-8.09,1.72-4.57.38-9.15.55-13.73.52-3.85-.03-7.71-.2-11.54.25-3.66.43-7.63,1.37-10.86-.42-1.37-.76-2.81-2.02-4.27-1.47-1.02.38-1.53,1.5-2.29,2.28-2.5,2.57-6.79,1.07-10.35,1.49-2.41.28-4.64,1.52-7.06,1.71-3.5.27-7.1-1.67-10.42-.52-3.9,1.35-5.22,6.1-5.98,10.17-.66,3.55-1.32,7.22-.48,10.73.26,1.1.67,2.17.88,3.29.3,1.59.19,3.23.07,4.84-.74,10.43-1.47,20.86-2.21,31.28-.15,2.15.34,5.08,2.49,5.19.7.04,1.36-.28,1.98-.59,2.06-1.03,4.43-2.52,4.43-4.83,0-.78-.29-1.57-.13-2.33.2-.95,1.03-1.6,1.77-2.23,5.18-4.36,6.2-22.02,6.27-28.78.03-2.59,3.35-4.94,14.7-10.46,8.05-3.91,14.52-4.63,14.52,1.46,0,3.3-5.89,9.49-4.44,12.45,1.01,2.06-.87,7.84.45,9.7.9,1.26,2.36,5.51,3.02,6.91,2.97,6.31-1.65,9.49,2.79,14.88.59.72,1.29,1.49,2.21,1.57,1.81.14,2.6-2.34,2.18-4.1-.42-1.76-1.42-3.57-.8-5.27.3-.81.92-1.46,1.41-2.18,1.65-2.47,1.5-5.67,1.62-8.64.1-2.45.44-4.89,1.01-7.28.59-2.46,1.46-4.94,3.21-6.77,1.75-1.83,4.54-2.85,6.89-1.9,2.31.93,3.58,3.4,4.3,5.78.72,2.38,1.13,4.93,2.56,6.97.96,1.37,2.35,2.46,3.03,3.99.64,1.42.58,3.04.74,4.6.42,4.02.8,4.02,2.71,7.59,9.11,16.97,11.14-.41,11.58-1.18.66-1.15,2.16-1.41,3.41-1.82,5.01-1.66,7.74-7.2,8.33-12.45.59-5.24-.39-10.55-.09-15.82.26-4.67,1.52-9.23,2.12-13.87.61-4.64.5-9.59-.61-10.78Z"/><path class="d" d="m101.6,513.97c1.23-5.64-2.34-11.21-7.98-12.44s-11.21,2.34-12.44,7.98c-1.23,5.64,2.34,11.21,7.98,12.44s11.21-2.34,12.44-7.98Zm-11.69,4.54c0-1.02.82-1.84,1.84-1.84s1.84.82,1.84,1.84-.82,1.84-1.84,1.84-1.84-.82-1.84-1.84Z"/><path class="b" d="m29.23,433.54c1.8-1.23,4.2-.71,6.38-.78,3.89-.12,7.64-2.3,11.48-1.68,2.68.43,5.14,2.21,7.85,1.99,1.59-.13,3.05-.94,4.61-1.3,2.99-.69,6.08.32,9.15.35,1.86.01,3.71-.34,5.57-.52,2.49-.24,4.99-.16,7.49-.09,8.92.27,17.84.54,26.76.81,3.69.11,7.69.13,10.66-2.07.92-.68,1.69-1.56,2.67-2.15,2.96-1.78,6.76-.52,9.89.95.88.41,1.81.91,2.19,1.8.4.95.05,2.02-.16,3.03-1.02,4.99,1.76,10.11,1.07,15.15-.31,2.24-1.29,4.34-1.56,6.58-.32,2.62.33,5.25.63,7.87s.2,5.49-1.4,7.59c-1,1.32-2.48,2.19-3.92,3.02-2.58,1.49-5.16,2.98-7.74,4.46-1.65.95-3.32,1.91-5.14,2.46-5.15,1.54-10.72-.39-16.05.3-2.95.38-6.57,1.33-8.42-1-.59-.74-.85-1.7-1.31-2.53-.83-1.49-2.27-2.53-3.52-3.69-5.11-4.76-7.24-12.47-5.3-19.18,2.86-9.88,4.98-8.02-.34-9.18-3.93-.86-4.58-.42-8.59-.11-3.76.29-8.38.59-12.07-.15-6.2-1.24-13.26-1.96-19.44-3.29-4.58-.99-7.51-4.28-12.07-5.37-.51-.12-.79-2.35-1.14-2.75-.78-.89.51-2.54,1.76-.53Z"/><path class="d" d="m117.37,463.37c1.22-5.59-2.32-11.12-7.91-12.34-5.59-1.22-11.12,2.32-12.34,7.91-1.22,5.59,2.32,11.12,7.91,12.34,5.59,1.22,11.12-2.32,12.34-7.91Zm-11.59,4.5c0-1.01.82-1.82,1.82-1.82s1.82.82,1.82,1.82-.82,1.82-1.82,1.82-1.82-.82-1.82-1.82Z"/><path class="b" d="m129.47,711.66c-.68.17-.44.44-1.98,1.98s-4.65,3.19-5.64,3.35-2.57,1.56-4.88.76c-2.01-.69-1.87-2.96-4.27-4.12-2.4-1.16-4.53-1.81-5.41-3.2s-2.95-5.35-3.28-7.47c-.33-2.12.01-5.72-.61-7.77-.62-2.06-.36-4.27-2.06-4.27s-2.97-.91-2.06-4.04c.91-3.12,1.23-6.15,1.79-11.48.15-1.41-.83-3.23.58-8.1s-.19-6.87,2.06-8.23c2.25-1.36,7.19-1.35,9.15-2.97,1.96-1.62,3.93-4.33.84-5.33-4.95-1.61-5.56,1.11-9.12,1.11s-8.92-1.26-11.54-1.64c-3.6-.53-4.88.63-6.86.91-1.98.28-5.11-.02-7.54,1.07-2.44,1.09-7.02,3.31-6.86,5.26.16,1.95.68,1.94,1.98,2.59s.53-.13,3.2.3c2.67.43,3.28-.44,4.34,1.3s1.4,3.76,3.35,5.72,3.83,5.31,4.57,6.71,1.54,2.09,2.82,4.04c1.28,1.95,1.28,3.28,1.6,6.94.32,3.65-.88,6.41-.3,8.69s-.31,4.67-1.6,6.4c-1.29,1.73-2.77,4.35-2.9,6.86-.12,2.5,1.42,2.58.3,5.02-.9,1.94-3.8,2.75-7.69,2.14-5.5-.85-5.33,1.91-7.85.99-2.51-.91-7.6-3.73-11.05-4.12s-7.12-.76-10.97-1.52c-3.85-.76-9.93-6.74-12.04-10.29-2.11-3.55-2.97-9.95-3.43-13.64s-.91-8.76,0-11.96,1.75-4.65,2.06-7.7,3.26-8.5,6.52-11.75c3.61-3.61,7.22-6.04,9.56-8.14,2.33-2.1,2.84-3.33,3.89-4.34,1.6-1.55,5.61-3.6,7.77-4.34s8.11-2.16,10.97-2.59c2.87-.43,18.36-2.93,25.07-1.14,6.72,1.79,11.78,3.75,13.26,4.04,1.48.29,2.82.56,4.04,1.45,1.22.88,1.37,1.23,2.74,2.13s-.11.96,2.36,2.44c2.47,1.48,5.8,2.65,7.62,4.88,1.82,2.23,2.17,4.08,3.66,6.63,1.49,2.55,3.41,4.43,4.8,7.16,1.39,2.73.88,5.39,2.44,8.46,1.55,3.07,1.83,2.53,3.05,5.41,1.21,2.88.3,2.78,1.07,6.1s1.3,5.64,1.68,10.29c.38,4.65.19,4.84-1.45,6.48s-3.07,1.34-4.27,2.9c-1.2,1.56-2.76,1.13-4.19,3.73s-2.09,6.01-3.73,6.55-4.21-.96-5.56-.61Z"/><path class="d" d="m77.31,683.42c1.31-5.99-2.49-11.9-8.47-13.21-5.99-1.31-11.9,2.49-13.21,8.47-1.31,5.99,2.49,11.9,8.47,13.21,5.99,1.31,11.9-2.49,13.21-8.47Zm-12.41,4.82c0-1.08.87-1.95,1.95-1.95s1.95.87,1.95,1.95-.87,1.95-1.95,1.95-1.95-.87-1.95-1.95Z"/><path class="d" d="m139.81,696.8c1.31-5.99-2.49-11.9-8.47-13.21-5.99-1.31-11.9,2.49-13.21,8.47-1.31,5.99,2.49,11.9,8.47,13.21,5.99,1.31,11.9-2.49,13.21-8.47Zm-12.41,4.82c0-1.08.87-1.95,1.95-1.95s1.95.87,1.95,1.95-.87,1.95-1.95,1.95-1.95-.87-1.95-1.95Z"/><path class="b" d="m134.94,598.65c-.56-4.32-3.8-8.17-7.95-9.46-2.06-.64-4.32-.71-6.2-1.77-3.71-2.11-4.84-7.5-8.82-9.04-1.32-.51-2.95-.61-3.8-1.75-.63-.85-.59-2.02-.95-3.03-.77-2.18-3.29-3.27-5.6-3.35s-4.58.58-6.89.72c-4.7.27-9.25-1.67-13.28-4.08-1.4-.84-2.8-1.75-4.4-2.06-3.34-.64-6.67,1.5-10.06,1.24-2-.15-3.94-1.13-5.92-.83-1.61.25-2.97,1.3-4.47,1.94-5.13,2.2-10.93-.64-15.69-3.56-4.76-2.92-10.19-6.14-15.58-4.65-.69.19-1.38.48-1.84,1.02-.87,1.02-.62,2.63.14,3.75s1.89,1.89,2.87,2.81c1.84,1.72,3.17,3.99,3.76,6.45.31,1.29.43,2.64,1.03,3.82.98,1.95,3.1,3.09,5.22,3.64,2.12.54,4.33.61,6.47,1.09,4.88,1.09,9.03,4.22,12.75,7.55.6.54,1.25,1.22,1.14,2.01-.08.59-.55,1.03-1.01,1.41-2.81,2.33-6.16,4.02-9.7,4.9-1.09.27-2.33.56-2.89,1.53-.79,1.38.31,3.03.76,4.55.65,2.19-.14,4.61-1.52,6.44s-3.28,3.18-5.14,4.49c-4.24,2.99-8.48,5.98-12.72,8.97-.57.41-1.17.83-1.53,1.43-.71,1.18-.33,2.75.46,3.87,2.01,2.84,6,3.41,9.47,3.09,3.47-.31,6.99-1.25,10.37-.44,2.52.6,4.8,2.14,7.39,2.31,5.2.34,8.93-4.7,13.41-7.37,5.65-3.37,12.7-2.93,19.26-2.38,3.33.28,6.66.56,9.94,1.22,2.09.42,4.16,1,6.29,1.01,2.82,0,5.67-1.01,8.42-.36,1.26.3,2.42.93,3.68,1.19,4.08.83,7.91-2.44,9.99-6.05,2.08-3.61,3.18-7.79,5.81-11.02,1.58-1.93,3.63-3.43,5.23-5.34s2.32-4.4,2.12-5.92Z"/><path class="d" d="m100.67,602.34c1.3-5.95-2.47-11.83-8.42-13.13-5.95-1.3-11.83,2.47-13.13,8.42-1.3,5.95,2.47,11.83,8.42,13.13,5.95,1.3,11.83-2.47,13.13-8.42Zm-12.34,4.79c0-1.07.87-1.94,1.94-1.94s1.94.87,1.94,1.94-.87,1.94-1.94,1.94-1.94-.87-1.94-1.94Z"/><path class="e" d="m.72,372.45V18C.72,8.35,8.57.5,18.22.5h120.37c9.65,0,17.5,7.85,17.5,17.5v354.45s-155.37,0-155.37,0Z"/><path class="c" d="m18.22,1h120.37c9.37,0,17,7.63,17,17v353.95s-154.37,0-154.37,0V18c0-4.52,1.78-8.78,5-12.01C9.44,2.77,13.7,1,18.22,1m0-1C8.32,0,.22,8.1.22,18v354.95s156.37,0,156.37,0V18C156.59,8.1,148.49,0,138.59,0H18.22Z"/><path class="b" d="m140.45,186.7c-7.12-.37-14.28.19-21.25,1.68-3.6.77-7.21,1.79-10.89,1.56-3.38-.21-6.79-1.47-10.09-.68-2.67.63-4.84,2.51-7.29,3.75-4.86,2.45-10.67,2.31-15.66,4.5-3.66,1.6-6.69,4.37-10.2,6.26-6.75,3.63-14.75,3.8-22.41,4-2.77.08-6.57,1.39-5.94,4.09.18.8.77,1.44,1.38,1.99,5.56,5.04,14.01,5.03,20.63,8.54,5.5,2.91,9.51,8.11,14.97,11.09,5.28,2.87,11.53,3.46,16.95,6.05,3.59,1.72,6.74,4.28,10.41,5.82,5.4,2.27,10.97,10.8,16.61,12.35,7.81,2.13,10.54-1.95,18.57-.98,8.13-3.51,5.87-18.03,5.45-24.37-.37-5.72-10.69-3.42-15.71-6.2-2.94-1.63-10.8.18-14.09-.46-12.08-2.37-19.5-7.99-31.14-11.99,3.69-2.99,8.48-4.58,13.23-4.41,1.56.06,3.16.29,4.63-.23,1.36-.48,2.42-1.54,3.51-2.49,8.3-7.24,19.98-8.79,30.01-13.34,3.74-1.69,7.56-4.17,8.32-6.52Z"/><path class="d" d="m132.63,242.68c1.22-5.56-2.31-11.06-7.87-12.28s-11.06,2.31-12.28,7.87c-1.22,5.56,2.31,11.06,7.87,12.28,5.56,1.22,11.06-2.31,12.28-7.87Zm-11.53,4.47c0-1,.81-1.81,1.81-1.81s1.81.81,1.81,1.81-.81,1.81-1.81,1.81-1.81-.81-1.81-1.81Z"/><path class="b" d="m125.4,137.56c-.92-2.03-4.77-3.05-5.91-4.93-.95-1.56-1.02-3.68-2.04-5.18-1.74-2.57-5.34-2.25-7.47-4.4-1.16-1.17-1.73-2.92-2.78-4.22-2.14-2.67-5.74-2.88-8.87-2.42-3.14.47-6.36,1.41-9.4.41-3.97-1.31-6.66-5.65-10.49-7.4-4.95-2.26-10.5.23-15.34,2.78-1.21.64-2.53,1.41-3.03,2.83-.34.97-.26,2.15-.86,2.94-.47.62-1.23.81-1.94.94-3.83.73-7.74.89-11.6.47-1.25-.14-2.55-.32-3.72.18-.81.35-1.49,1-2.16,1.65-3.6,3.49-7.21,6.98-10.81,10.47-.77.74-1.56,1.52-1.96,2.58-.31.82-.36,1.74-.6,2.59-.73,2.52-3.03,3.99-4.14,6.31-.97,2.02-.94,4.47-.72,6.77.97,10.08,5.42,20,12.88,25.45,4.15,3.03,8.98,4.57,13.73,6.06,4.09,1.29,8.18,2.57,12.26,3.86.91.29,1.86.58,2.79.39,1.07-.21,7.02-1.75,7.52-3.95,2.24-9.83,6.78-2.95,12.62-1.24,2.66.78,5.22,2.14,7.96,2.29,1.95.1,3.88-.42,5.78-.96,4.75-1.36,9.58-2.89,13.62-6.07.88-.69,2.15,2.27,7.17.83.62-.18,4.39-4.32,4.57-5.02,2.31-8.65,1.01-8.49,3.09-14.47,2.08-5.98.82-17.34-.17-19.53Z"/><path class="d" d="m89.84,156.63c.69-.99,1.41-1.89,2.02-2.23,2.39-1.34,4.52-2.91,7.24-3.21,1-.11,2.13-.21,2.78-.97.78-.91.47-2.4-.37-3.27-.83-.87-2.03-1.27-3.18-1.63-7.51-2.35-9.45-4.65-17.13-6.38-2.7-.61-5.95-1.52-11.62-2.02-4.2-1.82-5.01.23-7.43.83-.5.12-1.01.32-1.5.56-6.43.9-11.17,4.09-13.46,8.15-6.02,10.69,8.67,9.67,18.74,17,9.41,6.85,21.62-.23,23.89-6.83Zm-13.96.48c0-1.87,1.52-3.39,3.39-3.39s3.39,1.52,3.39,3.39-1.52,3.39-3.39,3.39-3.39-1.52-3.39-3.39Z"/><path class="b" d="m133.7,60.29c-2.63-1.85-6.16,1-9.35.58-1.59-.21-2.95-1.23-4.47-1.72-3.08-.99-6.51.27-9.64-.53-1.44-.37-2.77-1.16-4.24-1.34-1.15-.15-2.31.08-3.46.28-3.98.68-8.02.98-12.05.88-2.15-.05-4.34-.23-6.35-1-2.76-1.06-5.03-3.21-7.86-4.07-3.05-.93-6.32-.26-9.51-.02-9.44.72-18.76-2.39-28.23-2.6-.49-.01-1.04.01-1.37.37-.21.23-.28.54-.42.81-.48.87-1.65,1.08-2.63.94s-1.93-.54-2.92-.53c-2.15.03-3.85,2.06-4.21,4.18-.35,2.12.33,4.26,1.12,6.26.79,2,1.7,4,1.84,6.14.26,4.07-2.31,8.11-1.27,12.05.36,1.36,1.13,2.59,1.46,3.96,1.1,4.56-2.9,9.02-2.43,13.69.3,2.93,2.31,5.4,4.52,7.34,2.82,2.48,6.28,4.5,10.03,4.61,1.69.05,3.5-.35,4.66-1.58,1.6-1.69,1.5-4.38.77-6.59-.73-2.21-1.97-4.25-2.38-6.54-.54-3.03.49-6.21,2.4-8.62,1.91-2.41,4.63-4.08,7.53-5.11,2.22-.79,4.57-1.22,6.93-1.28,1.58-.04,3.17.09,4.71-.25,1.25-.28,2.41-.85,3.57-1.4,8.77-4.13,18.21-6.82,27.84-7.91,2.23-.25,4.53-.42,6.69.19,1.41.4,2.7,1.11,4.1,1.55,1.65.52,3.4.66,5.12.82,3.72.35,7.49.86,11.18.25s7.38-2.56,9.04-5.91c1.66-3.35.51-8.13-.74-7.92Z"/><path class="d" d="m56.98,70.32c1.22-5.56-2.31-11.06-7.87-12.28-5.56-1.22-11.06,2.31-12.28,7.87-1.22,5.56,2.31,11.06,7.87,12.28s11.06-2.31,12.28-7.87Zm-14.99,3.78c0-1,.81-1.81,1.81-1.81s1.81.81,1.81,1.81-.81,1.81-1.81,1.81-1.81-.81-1.81-1.81Z"/><path class="b" d="m110.68,264.94c-.05-1.5-1.69-2.42-3.16-2.68-1.48-.26-3.09-.21-4.32-1.07-1.26-.88-1.84-2.56-3.19-3.28-2.03-1.09-4.38.49-6.47,1.46-2.48,1.16-5.26,1.47-7.98,1.7-4.5.37-9.03.55-13.55.51-3.8-.03-7.61-.2-11.38.24-3.61.42-7.53,1.35-10.71-.41-1.35-.75-2.77-1.99-4.21-1.45-1.01.38-1.51,1.48-2.26,2.25-2.47,2.54-6.69,1.06-10.21,1.47-2.38.28-4.58,1.5-6.96,1.69-3.45.27-7.01-1.65-10.28-.51-3.85,1.34-5.15,6.02-5.9,10.03-.65,3.5-1.3,7.12-.47,10.58.26,1.09.66,2.14.87,3.24.3,1.57.19,3.19.07,4.78-.73,10.29-1.45,20.58-2.18,30.86-.15,2.12.34,5.01,2.46,5.12.69.04,1.34-.28,1.95-.59,2.04-1.02,4.37-2.49,4.37-4.76,0-.77-.29-1.55-.13-2.3.2-.93,1.02-1.58,1.75-2.2,5.11-4.3,6.12-21.72,6.19-28.4.03-2.55,3.31-4.87,14.51-10.32,7.94-3.86,14.32-4.56,14.32,1.44,0,3.26-5.81,9.37-4.39,12.28.99,2.03-.86,7.73.45,9.57.89,1.24,2.33,5.44,2.98,6.82,2.93,6.23-1.63,9.36,2.75,14.68.58.71,1.27,1.47,2.18,1.55,1.78.14,2.57-2.31,2.15-4.05s-1.4-3.52-.79-5.2c.29-.8.91-1.44,1.39-2.15,1.63-2.44,1.48-5.6,1.6-8.53.1-2.42.44-4.83,1-7.18.58-2.43,1.44-4.88,3.17-6.68,1.72-1.8,4.48-2.81,6.79-1.88,2.28.92,3.53,3.36,4.25,5.71.71,2.35,1.12,4.86,2.52,6.88.95,1.35,2.31,2.43,2.99,3.93.63,1.41.57,3,.73,4.53.42,3.97.79,3.97,2.67,7.49,8.99,16.74,10.99-.4,11.43-1.16.65-1.13,2.13-1.39,3.37-1.8,4.94-1.64,7.64-7.11,8.22-12.28s-.38-10.41-.09-15.6c.26-4.61,1.5-9.11,2.09-13.69.6-4.58.5-9.47-.6-10.64Z"/><path class="d" d="m100.96,283.12c1.22-5.56-2.31-11.06-7.87-12.28s-11.06,2.31-12.28,7.87c-1.22,5.56,2.31,11.06,7.87,12.28s11.06-2.31,12.28-7.87Zm-11.53,4.47c0-1,.81-1.81,1.81-1.81s1.81.81,1.81,1.81-.81,1.81-1.81,1.81-1.81-.81-1.81-1.81Z"/></svg>